<?xml version="1.0" encoding="UTF-8"?>
<!DOCTYPE svg PUBLIC "-//W3C//DTD SVG 1.1//EN" "http://www.w3.org/Graphics/SVG/1.1/DTD/svg11.dtd">
<!-- Creator: CorelDRAW 2020 (64-Bit) -->
<svg xmlns="http://www.w3.org/2000/svg" xml:space="preserve" width="360px" height="250px" version="1.1" style="shape-rendering:geometricPrecision; text-rendering:geometricPrecision; image-rendering:optimizeQuality; fill-rule:evenodd; clip-rule:evenodd"
viewBox="0 0 360 250"
 xmlns:xlink="http://www.w3.org/1999/xlink"
 xmlns:xodm="http://www.corel.com/coreldraw/odm/2003">
 <defs>
  <style type="text/css">
   <![CDATA[
    .fil0 {fill:none}
    .fil1 {fill:white}
   ]]>
  </style>
 </defs>
 <g id="Layer_x0020_1">
  <metadata id="CorelCorpID_0Corel-Layer"/>
  <rect class="fil0" width="360" height="250"/>
  <g id="_2640589875744">
   <path class="fil1" d="M109.41 193.4c4.74,-8.71 8.89,-17.42 5.9,-29.98 -1.75,-7.36 -3.18,-7.69 -6.91,-11.67 -9.97,-10.61 -16.04,-25.24 -13.48,-41.17 2.47,-15.37 11.09,-25.39 21.49,-34.31 36.48,-31.33 117.64,-28.16 144.02,19.16 4.56,8.17 7.02,19.67 5.01,30.59 -3.51,19.03 -17.16,32 -33.05,41.28 -17.03,9.96 -40.81,14.03 -60.92,12.58 -18,-1.31 -21.36,-4.85 -30.92,-6.36 -1.79,2.6 -3.99,4.43 -6.31,6.77 -6,6.08 -15.54,12.19 -24.83,13.11zm34.84 -7.58c5.79,1.11 11.03,2.83 17.45,3.77 18.74,2.76 39.03,1.15 56.6,-4.63 22.88,-7.54 38.49,-19.64 48.94,-35.42 13.05,-19.72 12.13,-45.39 -0.84,-64.61 -24.7,-36.61 -81.35,-48.1 -123.85,-34.24 -47.85,15.61 -75.58,59.37 -49.08,99.66 4.28,6.51 5.39,6.86 9.57,11.77 4.73,5.54 1.99,18.03 -2.36,24.98 -1.72,2.74 -2.79,3.67 -4.78,5.64 -2.08,2.05 -3.09,3.12 -5.65,4.78 -1.67,1.09 -5.32,2.83 -6.49,3.88 12.51,3.83 21.18,5.47 35.23,0.82 5.27,-1.75 9.98,-4.25 13.93,-6.93 6.28,-4.24 7.95,-6.99 11.33,-9.47z"/>
   <path class="fil1" d="M154.29 105.84l12.56 0c5.3,-20.28 29.1,-12.33 25.28,0.33 -1,3.31 -3.54,4.88 -5.63,6.63 -7.9,6.61 -14.08,10.32 -13.08,24.74l12.44 0.05c0.24,-7.85 1.29,-9.39 5.58,-13.06 6.86,-5.85 15.64,-12.12 14.52,-22.68 -1.06,-9.95 -9.69,-16.46 -18.94,-18.23 -5.67,-1.08 -11.82,-0.9 -17.03,0.87 -9.38,3.2 -15.88,12.16 -15.7,21.35z"/>
   <polygon class="fil1" points="185.64,143.62 173.6,143.54 173.6,156.03 185.63,156.03 "/>
   <path class="fil1" d="M185.64 143.62l-0.01 12.41 -12.03 0 0 -12.49 -0.29 12.71 12.96 0.06 0.08 -11.39c-0.23,-1.3 0.14,-0.59 -0.71,-1.3z"/>
  </g>
 </g>
</svg>
