<?xml version="1.0" encoding="UTF-8"?>
<!DOCTYPE svg PUBLIC "-//W3C//DTD SVG 1.1//EN" "http://www.w3.org/Graphics/SVG/1.1/DTD/svg11.dtd">
<!-- Creator: CorelDRAW 2020 (64-Bit) -->
<svg xmlns="http://www.w3.org/2000/svg" xml:space="preserve" width="360px" height="250px" version="1.1" style="shape-rendering:geometricPrecision; text-rendering:geometricPrecision; image-rendering:optimizeQuality; fill-rule:evenodd; clip-rule:evenodd"
viewBox="0 0 360 250"
 xmlns:xlink="http://www.w3.org/1999/xlink"
 xmlns:xodm="http://www.corel.com/coreldraw/odm/2003">
 <defs>
  <style type="text/css">
   <![CDATA[
    .fil0 {fill:none}
    .fil1 {fill:white}
   ]]>
  </style>
 </defs>
 <g id="Layer_x0020_1">
  <metadata id="CorelCorpID_0Corel-Layer"/>
  <rect class="fil0" width="360" height="250"/>
  <path class="fil1" d="M172.78 156c0,-3.86 -1.19,-11.67 2.65,-11.67 13.35,0 11.66,-1.6 11.67,11.67 1.14,0.77 1.56,1.21 3.18,1.59 2.53,-1.7 5.55,-6.89 9.02,-6.89 2.32,0 3.37,2.06 5.17,3.84 4.41,4.36 4.68,4.74 -0.53,9.81 -0.64,0.62 -1.67,1.52 -2.14,2.17 -1.99,2.71 -0.38,2.74 -0.38,2.74 0.47,1.77 0.7,1.72 2.73,2.03 4.12,0.64 10,-1.61 10,3.8 0,6.38 0.7,6.65 -1.6,10.08l-10.07 0c-2.24,3.36 -1.97,3.7 0.92,6.51 1.12,1.09 4.38,4.05 4.38,5.69 0,2.21 -7.03,8.58 -8.12,8.76 -3.35,0.57 -7.03,-6.64 -9.38,-6.64 -6.34,-0.01 -1.31,7.92 -3.91,11.48 -1.95,2.67 -10.92,2.67 -12.87,0 -2.18,-2.99 1.43,-11.48 -2.84,-11.48 -4.83,0 -6.59,7.71 -10.72,6.47 -1.67,-0.5 -3.3,-2.73 -4.53,-3.95 -4.73,-4.67 -4.61,-4.79 1.34,-10.59 2.79,-2.73 2.72,-3.14 0.65,-6.25l-10.08 0c-0.77,-1.15 -1.59,-1.77 -1.59,-3.71 0,-8.76 -1.03,-10.22 6.36,-10.09 8.79,0.16 8.17,-2.79 3.31,-7.54 -5.03,-4.93 -3.81,-5.49 0.27,-9.55 1.01,-1.01 2.87,-3.59 4.38,-3.58 4.48,0 6.41,4.8 9.55,6.89 1.61,-0.38 2.03,-0.83 3.18,-1.59zm-3.18 21.21c0,-8.46 10.04,-14.03 16.66,-8.18 1,0.88 0.2,0.11 1.06,1.07 1.13,1.27 2.95,4.56 2.96,6.58l0 0.53c0.01,5.36 -8.62,15 -17.39,6.79 -1.61,-1.5 -3.29,-4.49 -3.29,-6.79zm-5.84 -0.53c0,3.94 2.29,8.67 5.35,11.62l3.64 2.73c7.63,3.91 17.95,0.63 21.62,-7.61 2.85,-6.4 1.58,-12.67 -2.88,-17.49 -1.02,-1.09 -3.14,-2.62 -4.62,-3.33 -1.51,-0.73 -5.09,-1.69 -6.66,-1.7 -1.45,-0.01 -5.03,0.79 -6.47,1.36 -5.95,2.36 -9.98,9.72 -9.98,14.42zm15.91 -139.48c14.95,0 27.93,10.22 32.19,24.56 1.95,6.55 1.38,14.16 -1.19,20.76 -1.64,4.21 -3.59,7.04 -6.22,10.21 -4.46,5.35 -15.01,10.76 -22.13,10.76 -7.39,0 -10.28,-0.1 -17.15,-3.53 -11.39,-5.68 -19.19,-18.57 -18.37,-30.36 0.91,-13.32 8.43,-24.33 19.53,-29.3 2.67,-1.2 9.48,-3.1 13.34,-3.1zm-38.18 29.17c0,9 -0.34,13.14 3.87,21.58 4.13,8.28 11.31,14.89 19.83,18.39 0.12,0.05 0.26,0.11 0.38,0.16 18.34,7.4 39.87,-0.72 48.76,-18.2 5.55,-10.9 5.65,-24.85 -0.1,-35.81 -14.14,-26.93 -53.24,-28.03 -68.4,-0.34 -1.52,2.77 -4.34,10.24 -4.34,14.22zm-28.65 107.66c-1.29,-6.18 1.05,-25.4 2.54,-30.88 4.75,-17.49 22.71,-23.92 38.56,-29.35 3.24,-1.12 3.65,-0.45 6.11,0.83 10.9,5.66 22.79,7.02 34.72,2.37 2.32,-0.91 3.67,-1.65 5.76,-2.74 2.6,-1.37 3.16,-1.33 6.33,-0.31 2.29,0.74 4.05,1.36 6.37,2.13l3.5 1.27c7.81,3.1 12.85,5.46 18.8,10.9 3.82,3.5 4.74,4.84 7.18,9.79 4.78,9.69 3.64,23.12 4.53,33.79 0.08,1 0.75,2.2 -1.27,2.2l-24.93 0c-1.94,0 -1.39,-1.1 -1.99,-2.78 -0.45,-1.25 -0.75,-1.78 -1.56,-2.68 -1.55,-1.7 -3.54,-2.45 -6,-3.02 0.21,-2.42 2.29,-4.29 1.9,-7.23 -0.01,-0.04 -1.05,-3.51 -1.11,-3.63 -0.43,-0.87 -7.65,-9.83 -12.98,-9.83 -3.42,0 -4.91,1.73 -6.37,2.12 -1.19,-2.49 -0.49,-3.47 -2.76,-5.72 -3.92,-3.9 -7.67,-2.76 -15.27,-2.76 -5.87,0 -7.74,8.04 -7.96,8.48 -2.12,-0.56 -3.1,-2.12 -5.83,-2.12 -5.9,0 -8.39,4.48 -11.54,7.55 -6.36,6.19 -1.49,9.54 -1.19,13.14 -7.85,1.83 -6.86,5.1 -8.48,8.48l-27.06 0zm-5.83 3.18c0,1.24 1.42,2.66 2.65,2.66l30.23 0c0.01,6.14 2.93,10.67 8.49,11.13 -0.19,2.34 -0.4,1.15 -1.26,3.53 -1.4,3.84 -0.57,6.67 2.18,9.35 1.65,1.61 2.91,2.86 4.51,4.5 6.39,6.55 10.98,1.76 13.13,1.19 1.36,2.83 0.42,3.38 3.02,6 3.37,3.39 7.84,2.48 13.96,2.48 7.31,0 8.2,-6.8 9.01,-8.48 2.13,0.57 2.76,2.12 5.31,2.12 6.1,0 7.16,-2.77 12.34,-7.81 5.77,-5.62 1.2,-9.5 0.91,-12.88 6.07,-0.49 8.49,-5.44 8.49,-11.13l30.23 0c3.7,0 2.65,-5.82 2.67,-10.09 0.01,-3.25 -0.48,-4.1 -0.57,-6.87 -0.07,-2.56 0.19,-5.42 0,-7.95 -0.16,-2.09 -0.76,-4.28 -0.99,-6.43l-1.27 -6.69c-4.8,-20.89 -26.56,-28.97 -45.17,-34.38 -5.97,-1.74 -1.9,0.4 -12.54,4.45 -8.04,3.07 -17.43,2.9 -25.56,-0.3 -12.2,-4.78 -4.36,-6.53 -15.35,-2.94 -7.05,2.3 -14.38,5.43 -20.83,8.87 -1.98,1.06 -2.82,1.61 -4.67,2.75 -12.62,7.76 -16.74,19.2 -18.32,34.19 -0.24,2.33 0.02,5 -0.05,7.37 -0.08,2.76 -0.57,3.61 -0.56,6.87l0.01 8.49z"/>
 </g>
</svg>
