<?xml version="1.0" encoding="UTF-8"?>
<!DOCTYPE svg PUBLIC "-//W3C//DTD SVG 1.1//EN" "http://www.w3.org/Graphics/SVG/1.1/DTD/svg11.dtd">
<!-- Creator: CorelDRAW 2020 (64-Bit) -->
<svg xmlns="http://www.w3.org/2000/svg" xml:space="preserve" width="360px" height="250px" version="1.1" style="shape-rendering:geometricPrecision; text-rendering:geometricPrecision; image-rendering:optimizeQuality; fill-rule:evenodd; clip-rule:evenodd"
viewBox="0 0 360 250"
 xmlns:xlink="http://www.w3.org/1999/xlink"
 xmlns:xodm="http://www.corel.com/coreldraw/odm/2003">
 <defs>
  <style type="text/css">
   <![CDATA[
    .fil0 {fill:none}
    .fil1 {fill:white}
   ]]>
  </style>
 </defs>
 <g id="Layer_x0020_1">
  <metadata id="CorelCorpID_0Corel-Layer"/>
  <rect class="fil0" width="360" height="250"/>
  <g id="_1987560104128">
   <path class="fil1" d="M111.28 121.98c0,-8.49 3.09,-19.03 6.64,-26.46 0.52,-1.07 0.84,-1.69 1.42,-2.72 0.56,-1.02 0.87,-1.68 1.5,-2.64 1.21,-1.87 1.87,-3.33 3.17,-5.1 0.63,-0.85 1.1,-1.46 1.78,-2.36 2.94,-3.93 6.23,-7.54 10.1,-10.58 4.75,-3.74 9.61,-7.18 15.2,-9.62 3.85,-1.68 8.14,-3.4 12.19,-4.36 16.38,-3.86 33.35,-1.7 47.73,5.48 7.31,3.65 14.22,8.53 19.59,14.64 0.84,0.95 1.07,1.48 1.88,2.28 0.98,0.97 1.22,1.3 2.06,2.43 0.71,0.97 1.14,1.39 1.83,2.31 5.49,7.27 8.19,14.79 10.56,23.66 0.97,3.64 2.01,11.24 2.01,14.92l-0.65 9.51c-1.02,8.27 -3.4,15.75 -7.06,23.03 -0.93,1.85 -1.74,3.06 -2.7,4.82 -1.07,1.98 -1.76,2.79 -3.03,4.49 -4.8,6.37 -1.2,10.8 2.53,10.8 4.06,0 5.55,-2.19 8.01,-6.28 0.7,-1.15 0.96,-1.33 1.65,-2.48 2.26,-3.72 3.91,-6.68 5.82,-10.73 8.17,-17.28 8.45,-40.66 1.83,-58.75 -2.67,-7.29 -6.11,-15.07 -11,-20.96 -3.7,-4.44 -5.02,-6.12 -9.23,-10.34 -3.34,-3.34 -7.08,-6.31 -11.07,-8.86 -4.64,-2.96 -9.7,-5.39 -14.66,-7.53l-5.61 -1.9c-1.46,-0.39 -2.26,-0.63 -3.85,-1.05 -10.4,-2.73 -25.45,-3.52 -35.74,-1.01 -6.4,1.56 -12.53,3.12 -18.55,5.9 -1.25,0.59 -2.37,1.16 -3.49,1.78l-6.19 3.58c-4.86,3.32 -9.19,7 -13.3,11.16 -1.06,1.07 -1.36,1.75 -2.43,2.83 -0.93,0.93 -1.42,1.62 -2.25,2.63 -1.63,2 -2.68,3.49 -4.13,5.66 -4.09,6.14 -7.47,12.5 -9.8,19.53l-2.11 7.67c-1.03,5.57 -1.93,11.05 -1.93,17.63 0,30.52 15.77,56.2 40.91,70.03 1.64,0.91 2.96,1.59 4.75,2.4 1.92,0.85 3.25,1.48 5.27,2.25 1.95,0.75 3.62,1.25 5.62,1.91 1.82,0.59 4.3,1.23 5.98,1.54 1.48,0.26 1.8,0.35 3.13,0.63 1.16,0.25 1.85,0.17 3.06,0.32 4.92,0.62 15.72,1.14 20.75,0.6 0.86,-0.09 2.4,-0.49 3.15,-0.6 8.97,-1.23 16.72,-4.12 24.66,-8.06 2.74,-1.36 6.94,-3.57 8.79,-5.88 1.25,-1.56 1.75,-3.38 1.05,-5.71 -0.34,-1.12 -0.7,-1.43 -1.6,-2.17 -4.39,-3.63 -9.06,1.48 -12.94,3.42l-4.25 2.14c-1.48,0.67 -2.81,1.26 -4.47,1.93 -13.51,5.39 -32.19,5.18 -46.13,0.5 -9.84,-3.29 -18.42,-8.83 -25.67,-16.08 -6.11,-6.11 -10.22,-11.56 -14.13,-19.33 -5.2,-10.35 -6.65,-21.26 -6.65,-32.85z"/>
   <path class="fil1" d="M139.49 147.55l22.93 13.93c2.45,1.41 11.89,7.84 13.93,7.89l0 -42.13c0,-1.27 -3.16,-2.53 -4.29,-3.23l-13.76 -8.43c-3.52,-1.87 -16.66,-10.4 -18.81,-10.9l0 42.87z"/>
   <path class="fil1" d="M184.25 169.37c1.93,-0.45 7.02,-3.32 9.15,-4.39 3.17,-1.58 5.85,-3.02 8.96,-4.58l13.36 -6.95c1.6,-0.8 2.57,-1.74 4.26,-2.14l0 -43.25c-1.72,0.4 -6.86,3.44 -9.03,4.52 -4.04,2 -25.01,13.14 -26.7,13.54l0 43.25z"/>
   <path class="fil1" d="M144.76 98.28c0.6,0.82 7.41,4.78 8.49,5.42l25.65 16.13c1.87,1.12 3.09,-0.05 4.84,-0.99l27.52 -14.22c1.26,-0.62 3.49,-1.6 4.2,-2.57 -0.61,-0.85 -7.28,-4.54 -8.65,-5.27 -0.98,-0.53 -1.38,-0.83 -2.32,-1.43 -0.87,-0.56 -1.24,-0.64 -2.18,-1.19l-17.16 -10.32c-6.77,-4.39 -6.19,-3.61 -8.92,-2.23l-22.88 11.72c-1.73,0.9 -7.74,3.67 -8.59,4.95z"/>
  </g>
 </g>
</svg>
