<?xml version="1.0" encoding="UTF-8"?>
<!DOCTYPE svg PUBLIC "-//W3C//DTD SVG 1.1//EN" "http://www.w3.org/Graphics/SVG/1.1/DTD/svg11.dtd">
<!-- Creator: CorelDRAW 2020 (64-Bit) -->
<svg xmlns="http://www.w3.org/2000/svg" xml:space="preserve" width="360px" height="250px" version="1.1" style="shape-rendering:geometricPrecision; text-rendering:geometricPrecision; image-rendering:optimizeQuality; fill-rule:evenodd; clip-rule:evenodd"
viewBox="0 0 360 250"
 xmlns:xlink="http://www.w3.org/1999/xlink"
 xmlns:xodm="http://www.corel.com/coreldraw/odm/2003">
 <defs>
  <style type="text/css">
   <![CDATA[
    .fil0 {fill:none}
    .fil1 {fill:white}
   ]]>
  </style>
 </defs>
 <g id="Layer_x0020_1">
  <metadata id="CorelCorpID_0Corel-Layer"/>
  <g id="_2640578751680">
   <rect class="fil0" width="360" height="250"/>
   <g>
    <path class="fil1" d="M230.34 89.13c0,4.68 3.38,5.79 5.7,10.19 -0.88,1.31 -32.45,26.93 -35.46,28.94 -0.26,-3.06 -2.57,-17.41 -3.99,-19.25 -4.11,-5.32 -11.39,1.08 -15.74,4.01l-7 4.41c-1.29,0.78 -2.28,1.51 -3.43,2.28l-14.43 9.2c-1.41,0.94 -2.36,1.43 -3.76,2.37l-28.62 18.26c-2.37,1.52 -4.54,2.99 -6.93,4.48l-21.68 13.78c0.43,1.87 4.22,6.97 5.71,9.79 2.17,-0.18 23.65,-14.77 27.18,-16.85l60.05 -38.19c0,2.34 2.53,18 3.42,19.44 4.55,7.46 11.98,-0.97 17.32,-5.22 5.77,-4.6 30.38,-24.91 35.11,-28.07 1.23,2.33 5.59,8.15 8.15,8.15 3.61,0 5.57,-0.08 7.12,-5.53l4.79 -17.21c2.18,-7.74 1.97,-11.53 -7.02,-11.52l-20.79 1.23c-2.9,0.18 -5.7,2.4 -5.7,5.31z"/>
    <path class="fil1" d="M240.53 199.6c1.77,0 1.25,-2.19 1.23,-4.07 -0.33,-24.19 -0.01,-50.55 -0.01,-74.81 -1.51,0.03 -0.59,-0.08 -1.77,0.86l-11.1 8.9c-1.28,1 -12,8.75 -12,10.42l0 58.7 23.65 0z"/>
    <path class="fil1" d="M148.81 124.18l21.44 -13.61c1.26,-0.85 1.9,-1.52 3.42,-1.87l0 -58.3 -24.86 0 0 73.78z"/>
    <path class="fil1" d="M148.81 189.82c0,3.94 -0.81,9.78 1.22,9.78l23.64 0 0 -58.7c-4.19,2.22 -23.06,15.01 -24.86,15.49l0 33.43z"/>
    <path class="fil1" d="M183.05 199.6l24.46 0 0 -51.57 -2.33 1.54c-2.66,2.05 -5.19,3.15 -9.09,3.15 -9.37,0 -11.82,-8.34 -13.04,-10.19l0 57.07z"/>
    <path class="fil1" d="M138.62 199.6c1.71,0 1.26,-1.84 1.23,-3.66l-0.01 -33.44 -24.87 15.49 0 21.61 23.65 0z"/>
    <path class="fil1" d="M183.05 102.17c1.15,-0.31 2.26,-1.17 3.52,-1.78 7.5,-3.59 19.31,1.11 19.31,13.2 2.44,-0.65 1.63,-2.37 1.63,-7.75l0 -28.74c-1.15,-0.57 -21.46,-0.2 -24.46,-0.2l0 25.27z"/>
    <path class="fil1" d="M114.97 145.79c3.91,-2.07 14.23,-9.19 18.93,-12.06 7.39,-4.5 5.94,-2.04 5.94,-15.25 0,-0.94 -0.28,-1.22 -1.22,-1.22l-23.65 0 0 28.53z"/>
   </g>
  </g>
 </g>
</svg>
