<?xml version="1.0" encoding="UTF-8"?>
<!DOCTYPE svg PUBLIC "-//W3C//DTD SVG 1.1//EN" "http://www.w3.org/Graphics/SVG/1.1/DTD/svg11.dtd">
<!-- Creator: CorelDRAW 2020 (64-Bit) -->
<svg xmlns="http://www.w3.org/2000/svg" xml:space="preserve" width="360px" height="250px" version="1.1" style="shape-rendering:geometricPrecision; text-rendering:geometricPrecision; image-rendering:optimizeQuality; fill-rule:evenodd; clip-rule:evenodd"
viewBox="0 0 360 250"
 xmlns:xlink="http://www.w3.org/1999/xlink"
 xmlns:xodm="http://www.corel.com/coreldraw/odm/2003">
 <defs>
  <style type="text/css">
   <![CDATA[
    .fil0 {fill:none}
    .fil1 {fill:white}
   ]]>
  </style>
 </defs>
 <g id="Layer_x0020_1">
  <metadata id="CorelCorpID_0Corel-Layer"/>
  <rect class="fil0" width="360" height="250"/>
  <path class="fil1" d="M173.89 88.22l12.27 0c0,7.42 -1.02,9.42 3.29,10.88 1.52,0.52 3.56,1.77 4.75,1.77 2.63,0 5.64,-4.78 7.58,-6.04l8.52 8.34c-1.35,2.03 -6.13,5.04 -6.13,7.67 0,1.18 1.12,2.92 1.86,5.04 1.41,4.01 3.86,3 10.79,3l0 12.27c-7.42,0 -9.42,-1.01 -10.88,3.3 -0.52,1.52 -1.77,3.55 -1.77,4.75 0,2.03 4.55,6.22 6.23,7.37l-8.91 8.73c-0.92,-1.37 -2.15,-2.33 -3.36,-3.55 -2.72,-2.74 -3.08,-3.39 -6.48,-1.69 -5.95,2.95 -5.49,-0.25 -5.49,11.75l-12.27 0c0,-7.42 1.02,-9.42 -3.3,-10.88 -1.52,-0.51 -3.55,-1.77 -4.75,-1.77 -2.63,0 -5.63,4.78 -7.57,6.05l-8.53 -8.73c1.37,-0.92 2.33,-2.14 3.55,-3.35 2.74,-2.73 3.39,-3.09 1.69,-6.49 -2.96,-5.95 0.26,-5.49 -11.75,-5.49l0 -12.27c7.42,0 9.42,1.02 10.88,-3.29 0.52,-1.52 1.77,-3.56 1.77,-4.75 0,-2.63 -4.78,-5.64 -6.04,-7.58l8.34 -8.52c4.48,2.99 4.71,7.98 10.22,5.24 2.41,-1.2 5.49,-1.25 5.49,-4.47l0 -7.29zm3.07 45.99c1.94,0 3.02,-1.68 4.12,-2.77l10.06 -10.26c-0.34,-1.27 -0.9,-1.47 -1.82,-2.4 -0.92,-0.92 -1.12,-1.47 -2.49,-1.9l-9.87 9.67c-1.5,-1 -2.32,-2.94 -4.31,-3.54l-3.74 3.92c0.47,1.78 2.31,2.89 3.55,4.12 1.14,1.15 2.5,3.16 4.5,3.16zm-59.41 47.15c0,-3.44 2.77,-6.14 6.13,-6.14 4.75,0 8.63,6.16 4.15,10.67 -3.36,3.36 -10.28,1.3 -10.28,-4.53zm29.81 -19.46l-4.42 -4.21 -13.13 12.94c-2.13,-0.5 -3.17,-1.53 -6.13,-1.53 -6.45,0 -12.26,5.42 -12.26,11.88 0,7.33 5.45,12.64 11.88,12.64 7.45,0 12.64,-5.62 12.64,-12.26 0,-2.96 -1.03,-4 -1.62,-6.23l13.04 -13.23zm82.87 19.08c0,-3.85 5.94,-8.47 10.66,-3.77 0.97,0.97 1.61,2.3 1.61,4.15 0,8.01 -12.27,8.4 -12.27,-0.38zm-17.53 -18.88l12.93 13.13c-0.49,2.13 -1.53,3.17 -1.53,6.13 0,6.5 5.4,12.26 11.88,12.26 7.32,0 12.65,-5.38 12.65,-11.88 0,-7.45 -5.62,-12.64 -12.27,-12.64 -2.95,0 -3.99,1.03 -6.22,1.62l-13.24 -13.04 -4.2 4.42zm17.53 -93.42c0,-8.12 12.27,-8.12 12.27,0 0,8.19 -12.27,7.92 -12.27,0zm-6.13 0c0,2.95 1.04,3.99 1.53,6.13l-12.93 13.13 4.41 4.59 13.03 -13.22c2.23,0.59 3.27,1.63 6.22,1.63 6.65,0 12.27,-5.2 12.27,-12.65 0,-6.55 -5.4,-11.88 -12.65,-11.88 -6.38,0 -11.88,5.64 -11.88,12.27zm-106.55 0c0,-8.17 12.27,-8.03 12.27,0 0,7.92 -12.27,8.13 -12.27,0zm-6.13 -0.39c0,7.44 5.68,12.65 12.26,12.65 2.96,0 4,-1.04 6.13,-1.53l13.13 12.93 4.59 -4.41 -13.22 -13.02c0.6,-2.24 1.63,-3.28 1.63,-6.23 0,-6.55 -5.21,-12.06 -11.87,-12.29 -6.86,-0.24 -12.65,5.22 -12.65,11.9zm53.27 56.73c0,-8.45 6.88,-15.34 15.33,-15.34 8.45,0 15.34,6.89 15.34,15.34 0,8.45 -6.89,15.33 -15.34,15.33 -8.45,0 -15.33,-6.88 -15.33,-15.33zm-6.13 0c0,11.84 9.62,21.46 21.46,21.46 11.85,0 21.47,-9.62 21.47,-21.46 0,-11.81 -9.66,-21.46 -21.47,-21.46 -11.86,0 -21.46,9.62 -21.46,21.46zm95.05 0c0,-8.12 12.27,-8.12 12.27,0 0,8.11 -12.27,8.11 -12.27,0zm5.75 12.26c11.68,0 16.39,-13.09 9.3,-20.8 -1.47,-1.6 -4.66,-3.32 -7.42,-3.66 -6.86,-0.85 -12.21,4.13 -13.38,9.13l-6.51 0c0,-5.11 -2.09,-13.53 -3.78,-18.07 -1.38,-3.7 -4.71,-11.26 -7.34,-13.93 -1.47,-0.01 -2.7,1.35 -4.98,2.87 1.54,3.44 1.95,3.16 3.58,6.38 2.48,4.88 4.07,8.82 5.21,14.34 0.44,2.13 1.12,6.13 1.18,8.41l-6.14 0 0 6.13 6.14 0c-0.35,15.42 -9.6,27.57 -9.97,29.13 1.89,1.26 3.49,2.72 4.98,3.07 4.65,-6.95 8.08,-14.1 9.81,-22.77 0.52,-2.59 1.31,-6.71 1.31,-9.43l6.51 0c1.09,4.67 5.79,9.2 11.5,9.2zm-165.19 -12.26c0,-8.12 12.27,-8.12 12.27,0 0,8.11 -12.27,8.11 -12.27,0zm30.66 -3.07c0.11,-4.8 1.79,-11.66 3.4,-16.15 0.9,-2.51 1.97,-4.66 3.11,-6.85 1.08,-2.08 3.12,-4.69 3.46,-6.13 -1.89,-1.26 -3.49,-2.71 -4.98,-3.06 -5.72,8.54 -11.11,21.49 -11.12,32.19l-6.52 0c-1.13,-4.85 -6.41,-10.06 -13.32,-9.11 -2.87,0.39 -6.05,1.95 -7.66,3.85 -9.64,11.36 4.37,27.19 17,17.76 1.59,-1.18 3.49,-4.27 3.98,-6.37l6.52 0c0,2.85 0.84,7.05 1.37,9.75 1.67,8.41 5.28,15.78 9.75,22.45 1.23,-0.29 3.53,-2.1 4.98,-3.07 -0.35,-1.48 -2.44,-4.11 -3.59,-6.38 -2.45,-4.84 -4.06,-8.8 -5.21,-14.34 -0.44,-2.13 -1.12,-6.13 -1.17,-8.41l6.13 0 0 -6.13 -6.13 0zm49.06 82.79c0,-8.17 12.27,-8.03 12.27,0 0,8.11 -12.27,8.11 -12.27,0zm39.86 -32.2c-0.54,-0.75 -1.02,-1.52 -1.53,-2.29 -1.46,0.34 -2.02,1 -3.23,1.75 -3,1.86 -6.42,3.61 -9.75,4.81 -4.36,1.58 -11.39,3.29 -16.15,3.4l0 -6.13 -6.13 0 0 6.13c-2.38,-0.05 -6.45,-0.75 -8.73,-1.24 -12.45,-2.67 -18.19,-8.21 -20.4,-8.72 -1.26,1.88 -2.72,3.48 -3.07,4.97 4.89,3.28 8.34,5.11 14.4,7.45 2.8,1.08 5.13,1.71 8.37,2.36 2.59,0.52 6.71,1.31 9.43,1.31l0 6.52c-4.64,1.08 -9.2,5.78 -9.2,11.5 0,7.41 5.77,12.64 11.88,12.64 15.39,0 16.76,-21.04 3.45,-24.14l0 -6.52c4.78,0 13.61,-1.93 18.13,-3.72 5.74,-2.27 9.38,-4.26 14.06,-7.4 -0.31,-1.32 -0.86,-1.77 -1.53,-2.68zm-39.86 -127.24c0,-8.12 12.27,-8.12 12.27,0 0,8.18 -12.27,8.03 -12.27,0zm-6.13 0.38c0,5.86 4.71,10.45 9.2,11.5l0 6.51c-10.72,0 -23.65,5.4 -32.2,11.12 0.38,1.59 1.83,3.13 3.07,4.98 1.37,-0.32 1.91,-0.92 2.99,-1.61 1.03,-0.66 2.11,-1.31 3.13,-1.84 6.63,-3.45 15.5,-6.35 23.01,-6.52l0 6.14 6.13 0 0 -6.14c7.58,0.17 16.12,3.02 22.75,6.39 1.24,0.63 1.96,1.09 3.15,1.82 1.21,0.75 1.77,1.42 3.23,1.76 0.51,-0.77 0.99,-1.55 1.53,-2.3 0.67,-0.91 1.22,-1.35 1.53,-2.68 -8.77,-5.87 -21.23,-11.12 -32.19,-11.12l0 -6.51c13.34,-3.11 11.71,-24.05 -3.07,-24.18 -5.17,-0.04 -9.3,3.11 -11.18,7.25 -0.65,1.44 -1.08,3.19 -1.08,5.43zm-25.3 57.87c0,3.17 7.26,6.96 6.35,8.63 -1.35,2.51 -11.71,-2.42 -11.71,3.64l0 18.4c0,6.05 10.36,1.12 11.71,3.63 0.91,1.67 -6.35,5.46 -6.35,8.63 0,2.56 1.73,3.46 3.36,5.08 1.37,1.37 2.46,2.46 3.83,3.83 2.2,2.2 6.38,7.19 8.53,7.19 3.75,0 7.31,-7.27 9.01,-6.35 2.51,1.35 -2.42,11.71 3.64,11.71l18.39 0c6.06,0 1.13,-10.36 3.64,-11.71 1.67,-0.91 5.46,6.35 8.63,6.35 2.73,0 6.05,-4.33 8.91,-7.19 2.2,-2.2 7.18,-6.38 7.18,-8.53 0,-3.76 -7.27,-7.3 -6.35,-9.01 1.36,-2.51 11.72,2.42 11.72,-3.63l0 -18.4c0,-6.06 -10.36,-1.13 -11.72,-3.64 -0.9,-1.67 6.35,-5.46 6.35,-8.63 0,-2.63 -2.2,-3.92 -3.93,-5.65l-8.99 -9.02c-2.05,-2.05 -4,-1.97 -5.96,0 -0.96,0.97 -3.78,4.1 -4.62,4.67 -2.66,1.79 -1.81,-3.76 -1.79,-6.1 0.03,-3.43 0.14,-5.18 -3.43,-5.37l-18.04 0c-3.34,0.27 -3.09,2.37 -3.06,5.81 0.02,2.69 0.84,8.11 -2.22,5.27 -4.22,-3.91 -6.08,-8.45 -10.53,-3.89l-8.81 8.82c-1.69,1.69 -3.74,2.85 -3.74,5.46z"/>
 </g>
</svg>
